<?xml version="1.0" encoding="iso-8859-1"?>
<!-- Generator: Adobe Illustrator 18.1.1, SVG Export Plug-In . SVG Version: 6.00 Build 0) -->
<svg version="1.1" id="Capa_1" xmlns="http://www.w3.org/2000/svg" xmlns:xlink="http://www.w3.org/1999/xlink" x="0px" y="0px"
	 viewBox="0 0 389.129 389.129" style="fill:#010002;enable-background:new 0 0 389.129 389.129;" xml:space="preserve">
<g>
	<path d="M389.123,188.598h-78.936c-0.656-27.907-5.919-55.009-15.687-80.726
		c18.33-10.084,34.882-22.77,49.334-37.836C371.855,103.391,387.793,145.046,389.123,188.598z"/>
	<path d="M109.778,286.908c24.512-11.832,50.677-18.223,77.939-19.034v111.98
		C153.963,358.284,126.653,325.74,109.778,286.908z"/>
	<path d="M201.418,133.195c28.802-0.812,56.453-7.482,82.391-19.876
		c8.956,24.005,13.807,49.262,14.446,75.278h-96.836V133.195z"/>
	<path d="M201.418,121.262V9.281c33.749,21.564,61.059,54.102,77.939,92.946
		C254.845,114.054,228.68,120.45,201.418,121.262z"/>
	<path d="M187.712,121.262c-27.257-0.812-53.415-7.208-77.939-19.04
		c16.874-38.838,44.185-71.376,77.939-92.94V121.262z"/>
	<path d="M105.321,113.32c25.938,12.393,53.582,19.064,82.385,19.876v55.402h-96.83
		C91.52,162.582,96.365,137.319,105.321,113.32z"/>
	<path d="M187.718,200.532v55.402c-28.802,0.812-56.453,7.482-82.385,19.882
		c-8.962-24.005-13.807-49.268-14.452-75.284H187.718z"/>
	<path d="M201.418,267.868c27.257,0.817,53.421,7.208,77.945,19.034
		c-16.874,38.844-44.185,71.382-77.945,92.94V267.868z"/>
	<path d="M283.814,275.81c-25.938-12.393-53.588-19.064-82.396-19.876v-55.402h96.836
		C297.622,226.547,292.77,251.811,283.814,275.81z"/>
	<path d="M335.744,61.038c-13.425,14.124-28.79,26.039-45.814,35.569
		c-17.28-39.334-44.769-72.509-78.709-95.166C258.443,5.319,302.884,26.532,335.744,61.038z"/>
	<path d="M177.908,1.441c-33.94,22.656-61.435,55.832-78.709,95.166
		c-17.023-9.529-32.388-21.445-45.82-35.569C86.245,26.532,130.68,5.319,177.908,1.441z"/>
	<path d="M45.295,70.036c14.452,15.066,31.004,27.752,49.334,37.836
		c-9.762,25.723-15.031,52.819-15.687,80.726H0C1.337,145.046,17.274,103.385,45.295,70.036z"/>
	<path d="M0,200.532h78.948c0.656,27.919,5.925,55.015,15.687,80.732
		c-18.336,10.084-34.888,22.77-49.334,37.83C17.28,285.744,1.337,244.09,0,200.532z"/>
	<path d="M53.386,328.091c13.425-14.112,28.784-26.033,45.82-35.569
		c17.28,39.334,44.769,72.509,78.715,95.166C130.692,383.816,86.257,362.604,53.386,328.091z"/>
	<path d="M211.221,387.688c33.94-22.656,61.435-55.832,78.709-95.166
		c17.035,9.541,32.406,21.457,45.826,35.569C302.89,362.598,258.449,383.816,211.221,387.688z"/>
	<path d="M343.841,319.093c-14.446-15.054-30.992-27.74-49.334-37.836
		c9.768-25.717,15.031-52.813,15.687-80.726h78.936C387.799,244.09,371.861,285.744,343.841,319.093z"/>
</g>
<g>
</g>
<g>
</g>
<g>
</g>
<g>
</g>
<g>
</g>
<g>
</g>
<g>
</g>
<g>
</g>
<g>
</g>
<g>
</g>
<g>
</g>
<g>
</g>
<g>
</g>
<g>
</g>
<g>
</g>
</svg>
